<svg width="64" height="64" viewBox="0 0 64 64" fill="none" xmlns="http://www.w3.org/2000/svg">
  <!-- Fondo circular con borde -->
  <circle cx="32" cy="32" r="30" fill="white" stroke="#00A67E" stroke-width="2"/>
  
  <!-- Patrón tribal central -->
  <!-- Elemento central - diamante -->
  <path d="M32 28L34 30L32 32L30 30L32 28Z" fill="#00A67E"/>
  
  <!-- Cuatro elementos curvos principales -->
  <!-- Superior -->
  <path d="M32 20C32 20 28 18 24 22C20 26 22 30 26 32C30 34 32 32 32 32" 
        fill="none" stroke="#00A67E" stroke-width="3" stroke-linecap="round"/>
  
  <!-- Derecha -->
  <path d="M44 32C44 32 46 28 42 24C38 20 34 22 32 26C30 30 32 32 32 32" 
        fill="none" stroke="#00A67E" stroke-width="3" stroke-linecap="round"/>
  
  <!-- Inferior -->
  <path d="M32 44C32 44 28 46 24 42C20 38 22 34 26 32C30 30 32 32 32 32" 
        fill="none" stroke="#00A67E" stroke-width="3" stroke-linecap="round"/>
  
  <!-- Izquierda -->
  <path d="M20 32C20 32 18 28 22 24C26 20 30 22 32 26C34 30 32 32 32 32" 
        fill="none" stroke="#00A67E" stroke-width="3" stroke-linecap="round"/>
  
  <!-- Puntos de acento -->
  <circle cx="26" cy="22" r="2" fill="#00A67E"/>
  <circle cx="38" cy="26" r="2" fill="#00A67E"/>
  <circle cx="26" cy="42" r="2" fill="#00A67E"/>
  <circle cx="38" cy="38" r="2" fill="#00A67E"/>
  
  <!-- Elementos decorativos internos -->
  <path d="M28 28L36 28M28 36L36 36" stroke="#00A67E" stroke-width="1.5" stroke-linecap="round"/>
  <path d="M28 28L28 36M36 28L36 36" stroke="#00A67E" stroke-width="1.5" stroke-linecap="round"/>
</svg>


